<svg width="316" height="316" viewBox="0 0 316 316" fill="none" xmlns="http://www.w3.org/2000/svg">
<path d="M89.3559 311.619C117.591 311.619 142.566 297.39 158 275.57C173.434 297.39 198.409 311.619 226.644 311.619C273.691 311.619 311.619 272.178 311.619 223.789C311.619 197.623 300.543 174.102 282.942 158C300.543 141.898 311.619 118.377 311.619 92.2105C311.619 43.8223 273.691 4.38095 226.644 4.38095C198.409 4.38095 173.434 18.6097 158 40.4302C142.566 18.6097 117.591 4.38095 89.3559 4.38095C42.309 4.38095 4.38095 43.8223 4.38095 92.2105C4.38095 118.377 15.4574 141.898 33.0576 158C15.4574 174.102 4.38095 197.623 4.38095 223.789C4.38095 272.178 42.309 311.619 89.3559 311.619Z" stroke="#4162D8" stroke-width="7.2381"/>
<path d="M219.836 274.021C202.35 274.021 188.863 269.228 179.375 259.643C169.888 249.963 165.145 236.783 165.145 220.106C165.145 203.428 169.888 190.249 179.375 180.568C188.863 170.888 202.35 166.047 219.836 166.047C237.322 166.047 250.809 170.888 260.297 180.568C269.877 190.249 274.667 203.428 274.667 220.106C274.76 236.783 270.016 249.963 260.436 259.643C250.949 269.228 237.415 274.021 219.836 274.021ZM214.674 174.961C201.373 176.687 196.536 192.549 200.164 222.55C201.838 236.736 204.675 247.614 208.674 255.186C212.674 262.663 218.208 265.969 225.277 265.107C232.346 264.244 236.904 259.739 238.95 251.592C241.089 243.349 241.322 232.039 239.648 217.662C237.88 203.38 234.997 192.502 230.998 185.025C227.091 177.453 221.65 174.099 214.674 174.961Z" fill="#4162D8"/>
<path d="M221.079 150.623C203.195 150.623 189.402 145.831 179.699 136.246C169.996 126.565 165.145 113.386 165.145 96.7086C165.145 80.031 169.996 66.8519 179.699 57.1712C189.402 47.4905 203.195 42.6501 221.079 42.6501C238.963 42.6501 252.756 47.4905 262.459 57.1712C272.257 66.8519 277.156 80.031 277.156 96.7086C277.251 113.386 272.4 126.565 262.602 136.246C252.899 145.831 239.058 150.623 221.079 150.623ZM215.799 51.564C202.196 53.2893 197.25 69.1522 200.96 99.1528C202.672 113.338 205.573 124.217 209.664 131.789C213.754 139.265 219.414 142.572 226.644 141.709C233.874 140.847 238.535 136.342 240.628 128.195C242.815 119.952 243.053 108.642 241.341 94.2645C239.534 79.9831 236.585 69.1043 232.494 61.6281C228.499 54.0561 222.934 50.7014 215.799 51.564Z" fill="#4162D8"/>
<path d="M40.9464 96.7086C40.3723 80.2227 45.0606 67.0915 55.0112 57.3149C65.0575 47.5384 79.1224 42.6501 97.2058 42.6501C110.122 42.6501 120.791 44.7588 129.21 48.9761C137.63 53.1935 143.228 59.0881 146.002 66.6602C146.863 68.8647 147.294 71.3088 147.294 73.9926C147.294 76.5805 146.815 79.1204 145.859 81.6125C144.998 84.0087 143.371 86.0695 140.979 87.7947C138.587 89.52 135.621 90.5264 132.081 90.814C125.575 91.389 120.264 89.9992 116.15 86.6445C112.132 83.2898 110.362 78.3537 110.84 71.836C111.414 63.6889 109.883 58.0817 106.247 55.0146C102.707 51.9474 97.9234 50.7973 91.8956 51.564C78.4048 53.1935 73.4295 69.0564 76.9696 99.1527C79.6486 121.677 88.7382 134.329 104.238 137.109C113.041 138.738 120.599 137.157 126.914 132.364C132.059 128.46 133.551 124.42 134.234 120.319C134.521 118.594 134.808 117.204 135.095 116.15C135.477 115.096 136.147 114.089 137.104 113.131C138.156 112.172 139.448 111.741 140.979 111.837C144.806 112.124 148.6 115.033 147.835 121.072C146.403 132.364 138.43 137.878 134.377 140.847C125.479 147.364 113.376 150.623 98.0669 150.623C80.3662 150.623 66.5406 145.687 56.5899 135.815C46.735 125.942 41.5205 112.907 40.9464 96.7086Z" fill="#4162D8"/>
<path d="M45.9258 220.106C45.365 203.62 49.9443 190.489 59.6635 180.712C69.4762 170.936 83.214 166.047 100.877 166.047C113.493 166.047 123.913 168.156 132.137 172.373C140.361 176.591 145.828 182.485 148.538 190.057C149.38 192.262 149.8 194.706 149.8 197.39C149.8 199.978 149.333 202.518 148.398 205.01C147.557 207.406 145.968 209.467 143.632 211.192C141.296 212.917 138.399 213.924 134.941 214.211C128.586 214.786 123.399 213.396 119.381 210.042C115.456 206.687 113.727 201.751 114.194 195.233C114.755 187.086 113.259 181.479 109.708 178.412C106.25 175.345 101.578 174.194 95.6901 174.961C82.5131 176.591 77.6534 192.454 81.1112 222.55C83.728 245.074 92.6061 257.726 107.746 260.506C116.343 262.135 123.726 260.554 129.894 255.761C134.92 251.857 136.377 247.817 137.044 243.717C137.324 241.991 137.604 240.602 137.885 239.547C138.258 238.493 138.913 237.487 139.847 236.528C140.875 235.57 142.137 235.138 143.632 235.234C147.37 235.522 151.076 238.431 150.328 244.469C148.93 255.761 141.142 261.275 137.184 264.244C128.493 270.762 116.671 274.021 101.718 274.021C84.4289 274.021 70.9247 269.084 61.2055 259.212C51.5797 249.34 46.4865 236.304 45.9258 220.106Z" fill="#4162D8"/>
</svg>
